<?xml version="1.0" encoding="UTF-8" standalone="no"?><svg xmlns="http://www.w3.org/2000/svg" xmlns:xlink="http://www.w3.org/1999/xlink" contentStyleType="text/css" height="304px" preserveAspectRatio="none" style="width:1359px;height:304px;background:#FFFFFF;" version="1.1" viewBox="0 0 1359 304" width="1359px" zoomAndPan="magnify"><defs/><g><rect fill="#ADD8E6" height="36.4883" rx="12.5" ry="12.5" style="stroke:#181818;stroke-width:1.5;" width="121" x="10" y="132.9766"/><text fill="#000000" font-family="sans-serif" font-size="14" lengthAdjust="spacing" textLength="97" x="20" y="156.5117">xUnit Patterns</text><rect fill="#D3D3D3" height="36.4883" rx="12.5" ry="12.5" style="stroke:#181818;stroke-width:1.5;" width="89" x="181" y="20"/><text fill="#000000" font-family="sans-serif" font-size="14" lengthAdjust="spacing" textLength="65" x="191" y="43.5352">Assertion</text><rect fill="#FFBBCC" height="36.4883" rx="12.5" ry="12.5" style="stroke:#181818;stroke-width:1.5;" width="339" x="320" y="20"/><text fill="#000000" font-family="sans-serif" font-size="14" lengthAdjust="spacing" textLength="315" x="330" y="43.5352">How do you check that tests worked correctly?</text><rect fill="#90EE90" height="36.4883" rx="12.5" ry="12.5" style="stroke:#181818;stroke-width:1.5;" width="638" x="709" y="20"/><text fill="#000000" font-family="sans-serif" font-size="14" lengthAdjust="spacing" textLength="614" x="719" y="43.5352">Write a boolean expression that automate your judgment about whether the code worked</text><path d="M659,38.2441 L669,38.2441 C684,38.2441 684,38.2441 699,38.2441 L709,38.2441 " fill="none" style="stroke:#181818;stroke-width:1.0;"/><path d="M270,38.2441 L280,38.2441 C295,38.2441 295,38.2441 310,38.2441 L320,38.2441 " fill="none" style="stroke:#181818;stroke-width:1.0;"/><path d="M131,151.2207 L141,151.2207 C156,151.2207 156,38.2441 171,38.2441 L181,38.2441 " fill="none" style="stroke:#181818;stroke-width:1.0;"/><rect fill="#D3D3D3" height="36.4883" rx="12.5" ry="12.5" style="stroke:#181818;stroke-width:1.5;" width="73" x="181" y="76.4883"/><text fill="#000000" font-family="sans-serif" font-size="14" lengthAdjust="spacing" textLength="49" x="191" y="100.0234">Fixture</text><rect fill="#FFBBCC" height="36.4883" rx="12.5" ry="12.5" style="stroke:#181818;stroke-width:1.5;" width="437" x="304" y="76.4883"/><text fill="#000000" font-family="sans-serif" font-size="14" lengthAdjust="spacing" textLength="413" x="314" y="100.0234">How do you create common objects needed by several tests?</text><rect fill="#90EE90" height="36.4883" rx="12.5" ry="12.5" style="stroke:#181818;stroke-width:1.5;" width="441" x="791" y="76.4883"/><text fill="#000000" font-family="sans-serif" font-size="14" lengthAdjust="spacing" textLength="417" x="801" y="100.0234">Convert the local variables in the tests into instance variables</text><path d="M741,94.7324 L751,94.7324 C766,94.7324 766,94.7324 781,94.7324 L791,94.7324 " fill="none" style="stroke:#181818;stroke-width:1.0;"/><path d="M254,94.7324 L264,94.7324 C279,94.7324 279,94.7324 294,94.7324 L304,94.7324 " fill="none" style="stroke:#181818;stroke-width:1.0;"/><path d="M131,151.2207 L141,151.2207 C156,151.2207 156,94.7324 171,94.7324 L181,94.7324 " fill="none" style="stroke:#181818;stroke-width:1.0;"/><rect fill="#D3D3D3" height="36.4883" rx="12.5" ry="12.5" style="stroke:#181818;stroke-width:1.5;" width="134" x="181" y="132.9766"/><text fill="#000000" font-family="sans-serif" font-size="14" lengthAdjust="spacing" textLength="110" x="191" y="156.5117">External Fixture</text><rect fill="#FFBBCC" height="36.4883" rx="12.5" ry="12.5" style="stroke:#181818;stroke-width:1.5;" width="382" x="365" y="132.9766"/><text fill="#000000" font-family="sans-serif" font-size="14" lengthAdjust="spacing" textLength="358" x="375" y="156.5117">How do you release external resource in the fixture?</text><rect fill="#90EE90" height="36.4883" rx="12.5" ry="12.5" style="stroke:#181818;stroke-width:1.5;" width="343" x="797" y="132.9766"/><text fill="#000000" font-family="sans-serif" font-size="14" lengthAdjust="spacing" textLength="319" x="807" y="156.5117">Override tearDown() and release the resources</text><path d="M747,151.2207 L757,151.2207 C772,151.2207 772,151.2207 787,151.2207 L797,151.2207 " fill="none" style="stroke:#181818;stroke-width:1.0;"/><path d="M315,151.2207 L325,151.2207 C340,151.2207 340,151.2207 355,151.2207 L365,151.2207 " fill="none" style="stroke:#181818;stroke-width:1.0;"/><path d="M131,151.2207 L141,151.2207 C156,151.2207 156,151.2207 171,151.2207 L181,151.2207 " fill="none" style="stroke:#181818;stroke-width:1.0;"/><rect fill="#D3D3D3" height="36.4883" rx="12.5" ry="12.5" style="stroke:#181818;stroke-width:1.5;" width="109" x="181" y="189.4648"/><text fill="#000000" font-family="sans-serif" font-size="14" lengthAdjust="spacing" textLength="85" x="191" y="213">Test Method</text><rect fill="#FFBBCC" height="36.4883" rx="12.5" ry="12.5" style="stroke:#181818;stroke-width:1.5;" width="301" x="340" y="189.4648"/><text fill="#000000" font-family="sans-serif" font-size="14" lengthAdjust="spacing" textLength="277" x="350" y="213">How do you represent a single test case?</text><rect fill="#90EE90" height="36.4883" rx="12.5" ry="12.5" style="stroke:#181818;stroke-width:1.5;" width="324" x="691" y="189.4648"/><text fill="#000000" font-family="sans-serif" font-size="14" lengthAdjust="spacing" textLength="300" x="701" y="213">As a method whose name begins with test...</text><path d="M641,207.709 L651,207.709 C666,207.709 666,207.709 681,207.709 L691,207.709 " fill="none" style="stroke:#181818;stroke-width:1.0;"/><path d="M290,207.709 L300,207.709 C315,207.709 315,207.709 330,207.709 L340,207.709 " fill="none" style="stroke:#181818;stroke-width:1.0;"/><path d="M131,151.2207 L141,151.2207 C156,151.2207 156,207.709 171,207.709 L181,207.709 " fill="none" style="stroke:#181818;stroke-width:1.0;"/><rect fill="#D3D3D3" height="36.4883" rx="12.5" ry="12.5" style="stroke:#181818;stroke-width:1.5;" width="82" x="181" y="245.9531"/><text fill="#000000" font-family="sans-serif" font-size="14" lengthAdjust="spacing" textLength="58" x="191" y="269.4883">All Tests</text><rect fill="#FFBBCC" height="36.4883" rx="12.5" ry="12.5" style="stroke:#181818;stroke-width:1.5;" width="258" x="313" y="245.9531"/><text fill="#000000" font-family="sans-serif" font-size="14" lengthAdjust="spacing" textLength="234" x="323" y="269.4883">How do you run all tests together?</text><rect fill="#90EE90" height="36.4883" rx="12.5" ry="12.5" style="stroke:#181818;stroke-width:1.5;" width="217" x="621" y="245.9531"/><text fill="#000000" font-family="sans-serif" font-size="14" lengthAdjust="spacing" textLength="193" x="631" y="269.4883">Make a suite of all the suites</text><path d="M571,264.1973 L581,264.1973 C596,264.1973 596,264.1973 611,264.1973 L621,264.1973 " fill="none" style="stroke:#181818;stroke-width:1.0;"/><path d="M263,264.1973 L273,264.1973 C288,264.1973 288,264.1973 303,264.1973 L313,264.1973 " fill="none" style="stroke:#181818;stroke-width:1.0;"/><path d="M131,151.2207 L141,151.2207 C156,151.2207 156,264.1973 171,264.1973 L181,264.1973 " fill="none" style="stroke:#181818;stroke-width:1.0;"/><!--MD5=[d23c8e832e6a422e7bee71c1224b8aa0]
@startmindmap Red Bar Patterns
<style>
mindmapDiagram {
    .green {
        BackgroundColor lightgreen
    }
    .rose {
        BackgroundColor #FFBBCC
    }
    .blue {
        BackgroundColor lightblue
    }
    .grey {
        BackgroundColor lightgrey
    }
}
</style>
*  xUnit Patterns <<blue>>
** Assertion <<grey>>
*** How do you check that tests worked correctly? <<rose>>
**** Write a boolean expression that automate your judgment about whether the code worked <<green>>
** Fixture <<grey>>
*** How do you create common objects needed by several tests? <<rose>>
**** Convert the local variables in the tests into instance variables <<green>>
** External Fixture <<grey>>
*** How do you release external resource in the fixture? <<rose>>
**** Override tearDown() and release the resources <<green>>
** Test Method <<grey>>
*** How do you represent a single test case? <<rose>>
**** As a method whose name begins with test... <<green>>
** All Tests <<grey>>
*** How do you run all tests together? <<rose>>
**** Make a suite of all the suites <<green>>

@endmindmap

PlantUML version 1.2022.7(Mon Aug 22 19:01:30 CEST 2022)
(GPL source distribution)
Java Runtime: OpenJDK Runtime Environment
JVM: OpenJDK 64-Bit Server VM
Default Encoding: UTF-8
Language: en
Country: IT
--></g></svg>